<mxfile host="app.diagrams.net" modified="2022-11-22T08:30:04.324Z" agent="5.0 (Windows NT 10.0; Win64; x64) AppleWebKit/537.36 (KHTML, like Gecko) Chrome/107.0.0.0 Safari/537.36" etag="QA_wvgyighQEPp3rIovt" version="20.5.3" type="github">
  <diagram id="FOOsSRiRBodNKgdGqNZg" name="Pagina-1">
    <mxGraphModel dx="868" dy="490" grid="1" gridSize="10" guides="1" tooltips="1" connect="1" arrows="1" fold="1" page="1" pageScale="1" pageWidth="827" pageHeight="1169" math="0" shadow="0">
      <root>
        <mxCell id="0" />
        <mxCell id="1" parent="0" />
        <mxCell id="a-wyJa9MNx9FWE9N9pTR-6" value="" style="edgeStyle=orthogonalEdgeStyle;rounded=0;orthogonalLoop=1;jettySize=auto;html=1;" edge="1" parent="1" source="a-wyJa9MNx9FWE9N9pTR-1" target="a-wyJa9MNx9FWE9N9pTR-5">
          <mxGeometry relative="1" as="geometry" />
        </mxCell>
        <mxCell id="a-wyJa9MNx9FWE9N9pTR-1" value="" style="rounded=1;whiteSpace=wrap;html=1;" vertex="1" parent="1">
          <mxGeometry x="150" y="130" width="120" height="60" as="geometry" />
        </mxCell>
        <mxCell id="a-wyJa9MNx9FWE9N9pTR-4" value="" style="edgeStyle=orthogonalEdgeStyle;rounded=0;orthogonalLoop=1;jettySize=auto;html=1;" edge="1" parent="1" source="a-wyJa9MNx9FWE9N9pTR-2" target="a-wyJa9MNx9FWE9N9pTR-3">
          <mxGeometry relative="1" as="geometry" />
        </mxCell>
        <mxCell id="a-wyJa9MNx9FWE9N9pTR-2" value="" style="rhombus;whiteSpace=wrap;html=1;rounded=1;" vertex="1" parent="1">
          <mxGeometry x="380" y="160" width="80" height="80" as="geometry" />
        </mxCell>
        <mxCell id="a-wyJa9MNx9FWE9N9pTR-3" value="" style="ellipse;whiteSpace=wrap;html=1;rounded=1;" vertex="1" parent="1">
          <mxGeometry x="520" y="170" width="120" height="60" as="geometry" />
        </mxCell>
        <mxCell id="a-wyJa9MNx9FWE9N9pTR-8" style="edgeStyle=orthogonalEdgeStyle;rounded=0;orthogonalLoop=1;jettySize=auto;html=1;exitX=1;exitY=0.5;exitDx=0;exitDy=0;entryX=0;entryY=0.5;entryDx=0;entryDy=0;" edge="1" parent="1" source="a-wyJa9MNx9FWE9N9pTR-5" target="a-wyJa9MNx9FWE9N9pTR-2">
          <mxGeometry relative="1" as="geometry" />
        </mxCell>
        <mxCell id="a-wyJa9MNx9FWE9N9pTR-5" value="" style="whiteSpace=wrap;html=1;rounded=1;" vertex="1" parent="1">
          <mxGeometry x="170" y="250" width="120" height="60" as="geometry" />
        </mxCell>
      </root>
    </mxGraphModel>
  </diagram>
</mxfile>
